<svg version="1.1" id="Layer_1" xmlns="http://www.w3.org/2000/svg" xmlns:xlink="http://www.w3.org/1999/xlink" x="0px" y="0px"
	 width="100%" viewBox="0 0 354 534" enable-background="new 0 0 354 534" xml:space="preserve">
<path fill="#010101" opacity="1.000000" stroke="none" 
	d="
M144.000000,535.000000 
	C96.013367,535.000000 48.526737,535.000000 1.020054,535.000000 
	C1.020054,357.063477 1.020054,179.126938 1.020054,1.095201 
	C118.903252,1.095201 236.806610,1.095201 354.854980,1.095201 
	C354.854980,178.999908 354.854980,356.999939 354.854980,535.000000 
	C284.793640,535.000000 214.646820,535.000000 144.000000,535.000000 
M131.701599,436.499207 
	C131.701599,458.154083 131.701599,479.808990 131.701599,501.463867 
	C132.115768,501.693268 132.529953,501.922668 132.944122,502.152069 
	C181.518738,453.105377 230.093353,404.058685 278.641510,355.038727 
	C268.806519,344.807343 259.506622,334.871582 249.925385,325.214996 
	C222.945679,298.023193 195.883621,270.912720 168.744110,243.880539 
	C166.284973,241.431122 165.309189,238.967392 165.367203,235.589615 
	C165.510056,227.274719 165.323944,218.954788 165.335464,210.636963 
	C165.369385,186.167862 165.540756,161.698212 165.403229,137.230209 
	C165.374084,132.046005 166.125107,125.275101 163.307266,121.978951 
	C154.023163,111.118927 143.266556,101.517731 132.413376,90.777969 
	C132.068604,92.655563 131.636932,93.951653 131.624161,95.251854 
	C131.555496,102.244926 131.586029,109.239006 131.591293,116.232742 
	C131.626129,162.560822 131.617508,208.889130 131.827087,255.216415 
	C131.838226,257.679718 133.071518,260.749023 134.790726,262.501221 
	C160.529144,288.734406 186.411789,314.826538 212.350845,340.861847 
	C216.898010,345.425873 221.857559,349.579010 225.631500,353.015717 
	C204.595001,374.044800 184.670502,393.962280 164.907150,413.718689 
	C164.870392,413.204498 164.720642,412.080231 164.719925,410.955872 
	C164.707230,391.122986 164.685730,371.290070 164.739532,351.457306 
	C164.749008,347.961304 165.695511,344.696808 162.522308,341.548004 
	C131.339767,310.605347 100.337563,279.481049 69.251442,248.441086 
	C66.414658,245.608505 63.350563,243.003586 60.514194,240.404892 
	C56.686111,244.174957 56.891747,246.858704 60.444069,250.359970 
	C83.507957,273.092346 106.365692,296.034454 129.175110,319.022827 
	C130.483826,320.341797 131.433533,322.666931 131.442810,324.529297 
	C131.627121,361.518585 131.647919,398.508667 131.701599,436.499207 
M279.766815,302.733246 
	C285.376038,308.598541 290.985260,314.463867 296.427795,320.154907 
	C303.194153,315.752319 303.270660,315.374268 298.520447,310.823364 
	C295.693146,308.114685 292.655396,305.622162 289.879211,302.864349 
	C277.415741,290.483185 265.035400,278.018341 252.579697,265.629333 
	C242.451218,255.555038 232.258316,245.545532 221.594208,235.013702 
	C241.197891,215.833160 260.273651,197.169159 279.638977,178.221817 
	C230.187759,128.297134 181.600357,79.244560 132.561081,29.735783 
	C131.977890,31.555779 131.516678,32.325752 131.515976,33.096153 
	C131.501892,48.416664 131.440536,63.738869 131.691010,79.055786 
	C131.723953,81.070602 132.939316,83.521271 134.394287,84.990402 
	C163.466324,114.345345 192.655579,143.584167 221.814072,172.853500 
	C223.192429,174.237106 224.505203,175.686020 225.893417,177.151917 
	C225.238663,178.030548 224.911224,178.612106 224.454330,179.062225 
	C213.775162,189.583405 203.198959,200.214218 192.300430,210.503555 
	C189.897202,212.772430 190.053619,213.884232 192.232925,215.701950 
	C193.109772,216.433319 193.768204,217.419830 194.585251,218.230530 
	C222.808762,246.235107 251.039352,274.232513 279.766815,302.733246 
z"/>
<path fill="#F7F7F7" opacity="1.000000" stroke="none" 
	d="
M131.701721,435.998901 
	C131.647919,398.508667 131.627121,361.518585 131.442810,324.529297 
	C131.433533,322.666931 130.483826,320.341797 129.175110,319.022827 
	C106.365692,296.034454 83.507957,273.092346 60.444069,250.359970 
	C56.891747,246.858704 56.686111,244.174957 60.514194,240.404892 
	C63.350563,243.003586 66.414658,245.608505 69.251442,248.441086 
	C100.337563,279.481049 131.339767,310.605347 162.522308,341.548004 
	C165.695511,344.696808 164.749008,347.961304 164.739532,351.457306 
	C164.685730,371.290070 164.707230,391.122986 164.719925,410.955872 
	C164.720642,412.080231 164.870392,413.204498 164.907150,413.718689 
	C184.670502,393.962280 204.595001,374.044800 225.631500,353.015717 
	C221.857559,349.579010 216.898010,345.425873 212.350845,340.861847 
	C186.411789,314.826538 160.529144,288.734406 134.790726,262.501221 
	C133.071518,260.749023 131.838226,257.679718 131.827087,255.216415 
	C131.617508,208.889130 131.626129,162.560822 131.591293,116.232742 
	C131.586029,109.239006 131.555496,102.244926 131.624161,95.251854 
	C131.636932,93.951653 132.068604,92.655563 132.413376,90.777969 
	C143.266556,101.517731 154.023163,111.118927 163.307266,121.978951 
	C166.125107,125.275101 165.374084,132.046005 165.403229,137.230209 
	C165.540756,161.698212 165.369385,186.167862 165.335464,210.636963 
	C165.323944,218.954788 165.510056,227.274719 165.367203,235.589615 
	C165.309189,238.967392 166.284973,241.431122 168.744110,243.880539 
	C195.883621,270.912720 222.945679,298.023193 249.925385,325.214996 
	C259.506622,334.871582 268.806519,344.807343 278.641510,355.038727 
	C230.093353,404.058685 181.518738,453.105377 132.944122,502.152069 
	C132.529953,501.922668 132.115768,501.693268 131.701599,501.463867 
	C131.701599,479.808990 131.701599,458.154083 131.701721,435.998901 
z"/>
<path fill="#F5F5F5" opacity="1.000000" stroke="none" 
	d="
M279.517883,302.482117 
	C251.039352,274.232513 222.808762,246.235107 194.585251,218.230530 
	C193.768204,217.419830 193.109772,216.433319 192.232925,215.701950 
	C190.053619,213.884232 189.897202,212.772430 192.300430,210.503555 
	C203.198959,200.214218 213.775162,189.583405 224.454330,179.062225 
	C224.911224,178.612106 225.238663,178.030548 225.893417,177.151917 
	C224.505203,175.686020 223.192429,174.237106 221.814072,172.853500 
	C192.655579,143.584167 163.466324,114.345345 134.394287,84.990402 
	C132.939316,83.521271 131.723953,81.070602 131.691010,79.055786 
	C131.440536,63.738869 131.501892,48.416664 131.515976,33.096153 
	C131.516678,32.325752 131.977890,31.555779 132.561081,29.735783 
	C181.600357,79.244560 230.187759,128.297134 279.638977,178.221817 
	C260.273651,197.169159 241.197891,215.833160 221.594208,235.013702 
	C232.258316,245.545532 242.451218,255.555038 252.579697,265.629333 
	C265.035400,278.018341 277.415741,290.483185 289.879211,302.864349 
	C292.655396,305.622162 295.693146,308.114685 298.520447,310.823364 
	C303.270660,315.374268 303.194153,315.752319 296.427795,320.154907 
	C290.985260,314.463867 285.376038,308.598541 279.517883,302.482117 
z"/>
</svg>