<svg version="1.2" xmlns="http://www.w3.org/2000/svg" viewBox="0 0 219 219" width="219" height="219">
	<title>Sahyadri_logo_size_5</title>
	<style>
		.s0 { fill: #305226 } 
		.s1 { fill: #639841 } 
		.s2 { fill: #aac538 } 
		.s3 { fill: #ffffff } 
	</style>
	<g id="Layer 1">
		<g id="&lt;Group&gt;">
			<path id="&lt;Compound Path&gt;" fill-rule="evenodd" class="s0" d="m198.1 80c-2.6 0.1-4.9-2-5-4.7 0-2.6 2.1-4.9 4.7-5 2.7-0.1 4.9 2.1 5 4.7 0.1 2.7-2 4.9-4.7 5zm3.9-4.8c0-2.3-1.8-4.1-4-4.1-2.3 0.1-4.1 1.9-4.1 4.1 0.1 2.2 1.9 4 4.1 4 2.2 0 4-1.8 4-4z"/>
			<path id="&lt;Path&gt;" class="s0" d="m199.4 76q-0.3-0.6-0.6-1.2 0 0 0 0v2.6h-0.8v-4.4q0.4 0 0.7 0c0.1 0 0.1 0 0.1 0q0.3 0.5 0.5 1 0 0.1 0.1 0.2 0-0.1 0-0.2 0.3-0.5 0.5-1 0.1-0.1 0.2 0 0.3 0 0.7 0v4.4h-0.8v-2.6q0 0 0 0-0.3 0.6-0.6 1.2z"/>
			<path id="&lt;Path&gt;" class="s0" d="m196.6 73.8v3.6h-0.8v-3.6h-0.6v-0.8h2v0.8z"/>
			<path id="&lt;Path&gt;" class="s1" d="m114.4 148.8c-30.7-10.4-81.3 14.8-94.1-27.5-9.8-32.3 45.4-92.3 72.2-103.9 101-43.6 160.2 178.2 21.9 131.4z"/>
			<path id="&lt;Path&gt;" class="s0" d="m76 148.5c-23.2-19.4-69.3-35-57.7-72.6 8.8-28.7 85.8-47.3 113.9-43.2 106.1 15.4 42.2 198.2-56.2 115.8z"/>
			<path id="&lt;Path&gt;" class="s2" d="m55.6 46.5c-16.1 17.1-30.8 38.4-35.2 56.5-4.1-7.6-5.4-16.5-2.1-27.1 3.6-11.8 18.8-21.9 37.3-29.4z"/>
			<path id="&lt;Path&gt;" class="s2" d="m163.6 153.6c-20.2 19.7-51.6 25.1-87.6-5q-1.1-0.9-2.3-1.8c14.4-0.7 29-1.9 40.7 2 20.6 7 36.8 8 49.2 4.8z"/>
			<path id="&lt;Path&gt;" class="s3" d="m63.4 84.1q-0.3 0.4-0.6 0.6-0.3 0.2-0.7 0.2-0.3 0-0.7-0.3-0.4-0.2-0.9-0.5-0.4-0.3-1-0.5-0.6-0.3-1.4-0.3-0.8 0-1.3 0.2-0.6 0.2-1 0.6-0.4 0.4-0.5 0.9-0.2 0.5-0.2 1.1 0 0.7 0.3 1.1 0.4 0.4 1 0.8 0.6 0.3 1.4 0.6 0.8 0.3 1.6 0.6 0.8 0.3 1.5 0.7 0.8 0.4 1.4 1.1 0.6 0.6 1 1.5 0.4 0.9 0.4 2.2 0 1.8-0.7 3.3-0.6 1.6-1.7 2.8-1.2 1.2-2.8 1.9-1.7 0.7-3.8 0.7-1 0-2-0.3-1.1-0.2-2-0.6-1-0.4-1.8-1-0.8-0.6-1.4-1.3l1.9-2.4q0.3-0.3 0.6-0.5 0.3-0.2 0.7-0.2 0.4 0 0.9 0.3 0.4 0.4 0.9 0.7 0.5 0.4 1.2 0.7 0.7 0.4 1.7 0.4 1.5 0 2.3-0.9 0.8-0.8 0.8-2.3 0-0.8-0.3-1.2-0.4-0.5-1-0.8-0.6-0.4-1.4-0.6-0.7-0.3-1.5-0.6-0.8-0.3-1.6-0.7-0.8-0.4-1.3-1-0.6-0.6-1-1.6-0.4-0.9-0.4-2.3 0-1.6 0.6-3 0.6-1.5 1.7-2.6 1.1-1.1 2.7-1.8 1.6-0.7 3.6-0.7 1 0 1.9 0.3 1 0.2 1.8 0.5 0.8 0.4 1.5 0.9 0.7 0.5 1.2 1.1z"/>
			<path id="&lt;Compound Path&gt;" fill-rule="evenodd" class="s3" d="m74.8 100.3q0 0 0 0zm-2.3 2.2q-1.2 0.9-2.8 0.9-0.9 0-1.7-0.4-0.9-0.4-1.5-1.1-0.7-0.8-1.1-1.9-0.4-1.2-0.4-2.7 0-2.3 0.9-4.4 0.8-2 2.3-3.6 1.5-1.5 3.6-2.4 2.1-0.9 4.5-0.9 1.2 0 2.5 0.1 1.2 0.2 2.4 0.6l-2 16.4h-2.7q-0.5 0-0.8-0.1-0.3-0.1-0.5-0.4-0.2-0.2-0.3-0.5-0.1-0.3-0.1-0.6v-1.2q-1 1.4-2.3 2.2zm3.1-13.1q-1.2 0-2.2 0.6-1 0.5-1.8 1.5-0.7 0.9-1.1 2.2-0.4 1.3-0.4 2.7 0 0.8 0.1 1.4 0.2 0.5 0.4 0.9 0.2 0.3 0.5 0.5 0.3 0.2 0.7 0.2 0.5 0 1-0.4 0.5-0.5 1-1.2 0.5-0.7 0.9-1.7 0.4-0.9 0.6-2l0.6-4.7z"/>
			<path id="&lt;Path&gt;" class="s3" d="m89.7 88.4q1.1-1.2 2.4-1.8 1.3-0.6 2.7-0.6 1 0 1.9 0.4 0.9 0.4 1.4 1.2 0.6 0.8 0.9 2 0.2 1.2 0 2.8l-1.2 10.7h-5.1l1.3-10.7q0.1-0.7 0-1.2 0-0.5-0.2-0.8-0.1-0.2-0.4-0.4-0.2-0.1-0.6-0.1-0.5 0-1.1 0.3-0.5 0.3-1 0.9-0.5 0.5-1 1.3-0.4 0.8-0.7 1.8l-1.1 8.9h-5.1l3-24.4h5.1z"/>
			<path id="&lt;Path&gt;" class="s3" d="m117.2 86.2l-11 21.3q-0.5 1-1.5 1h-3.8l3.8-6.9-4.1-15.4h4.2q0.6 0 0.8 0.3 0.3 0.2 0.4 0.6l1.5 7.3q0.1 0.4 0.1 0.9 0.1 0.5 0.2 1 0.2-0.5 0.4-1 0.2-0.5 0.4-1l3.2-7.2q0.1-0.4 0.5-0.6 0.4-0.3 0.8-0.3z"/>
			<path id="&lt;Compound Path&gt;" fill-rule="evenodd" class="s3" d="m125.4 100.3q0 0 0 0zm-2.3 2.2q-1.2 0.9-2.8 0.9-0.9 0-1.7-0.4-0.9-0.4-1.5-1.1-0.7-0.8-1.1-1.9-0.4-1.2-0.4-2.7 0-2.3 0.9-4.4 0.8-2 2.3-3.6 1.5-1.5 3.6-2.4 2.1-0.9 4.5-0.9 1.2 0 2.5 0.1 1.2 0.2 2.4 0.6l-2 16.4h-2.7q-0.5 0-0.8-0.1-0.3-0.1-0.5-0.4-0.2-0.2-0.3-0.5-0.1-0.3-0.1-0.6v-1.2q-1 1.4-2.3 2.2zm3.1-13.1q-1.2 0-2.2 0.6-1 0.5-1.8 1.5-0.7 0.9-1.1 2.2-0.4 1.3-0.4 2.7 0 0.8 0.1 1.4 0.1 0.5 0.4 0.9 0.2 0.3 0.5 0.5 0.3 0.2 0.7 0.2 0.5 0 1-0.4 0.5-0.5 1-1.2 0.5-0.7 0.9-1.7 0.4-0.9 0.6-2l0.6-4.7z"/>
			<path id="&lt;Compound Path&gt;" fill-rule="evenodd" class="s3" d="m151.1 78.7l-3 24.4h-2.7q-0.5 0-0.8-0.1-0.3-0.1-0.5-0.4-0.2-0.2-0.3-0.5 0-0.3 0-0.6v-1.4q-1.2 1.5-2.6 2.4-1.4 0.9-3 0.9-1 0-1.9-0.4-0.8-0.4-1.5-1.2-0.6-0.7-0.9-2-0.4-1.2-0.4-2.9 0-1.4 0.3-2.8 0.3-1.4 0.9-2.6 0.5-1.2 1.3-2.3 0.8-1 1.7-1.7 0.9-0.7 1.9-1.1 1.1-0.4 2.2-0.4 1 0 1.8 0.3 0.9 0.3 1.5 0.9l1.1-8.5zm-6.4 11.7q-0.5-0.4-1.1-0.6-0.6-0.1-1.1-0.1-0.9 0-1.6 0.6-0.7 0.5-1.3 1.5-0.5 0.9-0.8 2.2-0.3 1.2-0.3 2.5 0 1.6 0.5 2.3 0.4 0.7 1.2 0.7 0.5 0 1.1-0.4 0.6-0.4 1.1-1 0.5-0.7 1-1.7 0.4-0.9 0.8-1.9z"/>
			<path id="&lt;Path&gt;" class="s3" d="m157.5 89.7q0.6-1.1 1.3-1.9 0.7-0.8 1.4-1.2 0.8-0.4 1.6-0.5 0.7 0 1.5 0.3l-0.9 4.7q-0.9-0.4-1.7-0.4-0.8 0.1-1.5 0.6-0.7 0.5-1.2 1.6-0.6 1-1 2.6l-0.9 7.6h-4.9l2-16.9h2.6q0.8 0 1.2 0.4 0.5 0.3 0.5 1.2z"/>
			<path id="&lt;Compound Path&gt;" class="s3" d="m170.6 86.2l-2 16.9h-5l2.1-16.9zm0.9-4.6q0 0.6-0.3 1.1-0.2 0.6-0.6 1-0.5 0.3-1 0.6-0.6 0.2-1.1 0.2-0.6 0-1.1-0.2-0.5-0.3-0.9-0.6-0.4-0.4-0.7-1-0.2-0.5-0.2-1.1 0-0.6 0.2-1.1 0.3-0.6 0.7-1 0.4-0.4 0.9-0.6 0.5-0.3 1.1-0.3 0.6 0 1.1 0.3 0.6 0.2 1 0.6 0.4 0.4 0.6 0.9 0.3 0.6 0.3 1.2z"/>
			<path id="&lt;Path&gt;" class="s3" d="m77 116.1l-1.5 12.6-0.9 2.8q-0.3 1-0.9 1.5-0.6 0.5-1.7 0.5h-2l2.1-17.4-1-0.2q-0.5-0.2-0.8-0.4-0.3-0.3-0.2-0.8l0.3-2h2.1l0.1-1q0.2-1.4 0.8-2.6 0.6-1.2 1.6-2 0.9-0.8 2.2-1.3 1.3-0.5 2.7-0.5 0.6 0 1.1 0.1 0.5 0.1 1 0.3l-0.5 2.5q-0.1 0.4-0.5 0.5-0.3 0.2-0.7 0.2-1.3 0-2 0.6-0.7 0.7-0.9 2.4l-0.1 0.8h3.4l-0.5 3.4z"/>
			<path id="&lt;Compound Path&gt;" fill-rule="evenodd" class="s3" d="m90.7 125q-1.1 1.4-2.3 2.2-1.3 0.8-2.9 0.8-0.9 0-1.7-0.3-0.9-0.4-1.5-1.1-0.7-0.8-1.1-1.9-0.3-1.2-0.3-2.7 0-2.3 0.8-4.4 0.8-2 2.3-3.6 1.5-1.5 3.6-2.5 2.1-0.9 4.6-0.9 1.2 0 2.4 0.2 1.2 0.2 2.4 0.6l-2 16.4h-2.7q-0.5 0-0.8-0.1-0.3-0.2-0.5-0.4-0.2-0.2-0.3-0.5 0-0.3 0-0.6zm0.7-10.9q-1.2 0-2.2 0.6-1 0.5-1.8 1.5-0.7 0.9-1.1 2.2-0.4 1.3-0.4 2.7 0 0.8 0.1 1.4 0.2 0.5 0.4 0.9 0.2 0.3 0.5 0.5 0.3 0.2 0.7 0.2 0.5 0 1-0.4 0.6-0.5 1-1.2 0.5-0.7 0.9-1.7 0.4-0.9 0.6-2l0.6-4.7z"/>
			<path id="&lt;Path&gt;" class="s3" d="m105 114.4q0.6-1.1 1.3-1.9 0.7-0.8 1.4-1.2 0.8-0.4 1.5-0.5 0.8-0.1 1.6 0.3l-0.9 4.7q-0.9-0.4-1.8-0.4-0.8 0.1-1.4 0.6-0.7 0.5-1.3 1.5-0.5 1.1-0.9 2.7l-0.9 7.6h-4.9l2-16.9h2.6q0.8 0 1.2 0.4 0.5 0.3 0.5 1.2z"/>
			<path id="&lt;Path&gt;" class="s3" d="m111 127.8l2-16.9h2.6q0.8 0 1.3 0.4 0.4 0.3 0.4 1.2v1q1.1-1.5 2.3-2.2 1.1-0.7 2.4-0.7 1.5 0 2.4 1 1 0.9 1.2 2.7 1.1-1.9 2.5-2.8 1.3-0.9 3-0.9 1.1 0 1.9 0.5 0.8 0.4 1.4 1.2 0.6 0.8 0.8 2 0.2 1.2 0 2.7l-1.3 10.8h-5l1.3-10.8q0.1-0.6 0.1-1.1-0.1-0.5-0.2-0.8-0.1-0.2-0.3-0.4-0.3-0.1-0.6-0.1-0.5 0-0.9 0.3-0.5 0.3-0.9 0.8-0.4 0.5-0.8 1.2-0.3 0.7-0.6 1.6l-1.1 9.3h-4.9l1.2-10.8q0.1-0.6 0.1-1.1 0-0.5-0.2-0.8-0.1-0.2-0.3-0.4-0.2-0.1-0.5-0.1-0.6 0-1 0.3-0.5 0.3-0.9 0.8-0.4 0.5-0.8 1.3-0.3 0.7-0.6 1.6l-1.1 9.2z"/>
			<path id="&lt;Path&gt;" class="s3" d="m149.1 114.4q-0.3 0.3-0.5 0.5-0.2 0.1-0.5 0.1-0.3 0-0.6-0.1-0.4-0.2-0.7-0.4-0.4-0.2-0.9-0.3-0.4-0.2-1-0.2-1.1 0-1.6 0.5-0.5 0.4-0.5 1.1 0 0.4 0.3 0.7 0.2 0.3 0.7 0.6 0.4 0.2 1 0.4 0.5 0.2 1.1 0.5 0.6 0.2 1.2 0.6 0.5 0.3 1 0.8 0.4 0.4 0.7 1.1 0.3 0.6 0.3 1.5 0 1.3-0.6 2.4-0.5 1.2-1.4 2-0.9 0.8-2.3 1.3-1.3 0.5-3 0.5-0.8 0-1.6-0.1-0.8-0.2-1.5-0.5-0.7-0.2-1.2-0.6-0.6-0.4-1-0.8l1.3-1.9q0.2-0.3 0.5-0.5 0.3-0.2 0.8-0.2 0.4 0 0.7 0.2 0.2 0.2 0.6 0.4 0.3 0.2 0.8 0.4 0.5 0.2 1.2 0.2 1.1 0 1.6-0.4 0.6-0.5 0.6-1.2 0-0.5-0.3-0.8-0.3-0.3-0.7-0.6-0.5-0.2-1-0.4-0.6-0.2-1.2-0.4-0.5-0.2-1.1-0.5-0.6-0.3-1-0.8-0.4-0.4-0.7-1.1-0.3-0.7-0.3-1.6 0-1.2 0.5-2.3 0.4-1.1 1.2-2 0.9-0.8 2.2-1.3 1.2-0.6 2.9-0.6 1.7 0 3.1 0.6 1.3 0.6 2.1 1.5z"/>
			<path id="&lt;Path&gt;" class="s3" d="m124 66.5c-3.1 8-12.4 9.5-19.9 9.9 7.3-5.9 5.2-13.6 7.4-19.4 2.9-7.4 11.1-9.9 17.8-11.4-6 4.2-2.4 13.2-5.3 20.9z"/>
			<path id="&lt;Path&gt;" class="s3" d="m129.3 45.6c-6 4.2-2.4 13.2-5.3 20.9-3.1 7.9-12.4 9.5-19.9 9.9 7.3-5.9 5.2-13.6 7.4-19.4 2.9-7.4 11.1-9.9 17.8-11.4z"/>
			<path id="&lt;Path&gt;" class="s3" d="m109.9 65.3l0.5-0.3c-0.8 3.8-1.9 7.8-6.4 11.4 20.4-1 20.9-10.7 21.3-19.2-1.6 7.7-2.9 16.6-21.3 19.2 4.2-3.4 5.3-7.2 5.9-11.1z"/>
			<path id="&lt;Path&gt;" class="s3" d="m127 48.1c-1.3 0.3-7.6 2-11.9 5.9-5.4 4.8-3.5 13-7.5 18.5 3.1-5.2 2.1-10.9 3.9-15.5 2.9-7.4 11.1-9.9 17.8-11.4-1 0.7-1.7 1.6-2.3 2.5z"/>
			<path id="&lt;Path&gt;" class="s3" d="m129.3 45.6c-1 0.7-1.7 1.6-2.3 2.5-1.3 0.3-7.6 2-11.9 5.9-5.4 4.8-3.5 13-7.5 18.5 3.1-5.2 2.1-10.9 3.9-15.5 2.9-7.4 11.1-9.9 17.8-11.4z"/>
			<path id="&lt;Path&gt;" class="s3" d="m139.7 45.4q-0.1 0.1-0.2 0.1-0.1 0-0.2 0-0.2 0.1-0.5 0.1-0.6 0.3-1.2 0.6c-2.8 1.8-3.2 5.4-3.2 8.4 0.4 0 0.9-0.1 1.4 0 0.5 0.1 0.9 0.3 1.3 0.6q0.6 0.5 0.8 1.2c0.3 0.7 0.2 1.4 0.2 2v1.1 0.3c0 0.1 0 0.3-0.1 0.3h-0.6-2.1-0.6c-0.1 0-0.4-0.1-0.6 0-0.1 0 0 0 0 0.1q-0.1 0.1-0.1 0.2 0 0.2 0 0.4-0.1 0.8-0.3 1.6c-0.3 1.3-0.7 2.7-1.2 3.9-0.6 1.1-1.1 2.2-1.9 3.2q-1 1.3-2.3 2.4-1.5 1.3-3.2 2.1-2.3 1.1-4.7 1.8-2.4 0.6-4.9 0.9c-2.6 0.4-5.3 0.5-7.9 0.4q1.3-0.1 2.7-0.4c2.6-0.5 5.3-1.2 7.7-2.2 3.4-1.5 6.5-3.7 8.2-7.1 1.4-2.8 1.7-5.9 1.9-9 0.1-2.5 0.1-5 0.9-7.4 0.6-1.9 1.8-3.6 3.5-4.6 0.9-0.5 1.8-0.8 2.8-0.9 1.4-0.3 2.9-0.3 4.4-0.1 0 0 0 0 0 0z"/>
			<path id="&lt;Path&gt;" class="s3" d="m137.4 45.3q1.2 0 2.3 0.1c0 0 0 0 0 0q-0.1 0.1-0.2 0.1-0.1 0-0.2 0-0.2 0.1-0.5 0.1-0.6 0.3-1.2 0.6c-2.8 1.8-3.2 5.4-3.2 8.4 0.4 0 0.9-0.1 1.4 0 0.5 0.1 0.9 0.3 1.3 0.6q0.6 0.5 0.8 1.2c0.2 0.7 0.2 1.4 0.2 2v1.1 0.3c0 0.1 0 0.3-0.1 0.3h-0.6-2.1-0.6c-0.1 0-0.4-0.1-0.6 0-0.1 0 0 0-0.1 0.1q0 0.1 0 0.2 0 0.2 0 0.4-0.1 0.8-0.3 1.6c-0.3 1.3-0.7 2.7-1.2 3.9-0.6 1.1-1.1 2.2-1.9 3.2q-1 1.3-2.3 2.4-1.5 1.3-3.3 2.1-2.2 1.1-4.6 1.8-2.4 0.6-4.9 0.9c-2.6 0.4-5.3 0.5-7.9 0.4q1.3-0.1 2.7-0.4c2.6-0.5 5.3-1.2 7.7-2.2 3.4-1.5 6.5-3.7 8.2-7.1 1.4-2.8 1.7-5.9 1.9-9 0.1-2.5 0.1-5 0.9-7.4 0.6-1.9 1.8-3.6 3.5-4.6 0.9-0.5 1.8-0.8 2.8-0.9q1.1-0.2 2.1-0.2z"/>
			<path id="&lt;Path&gt;" class="s3" d="m138.1 58.4v1.1 0.3c0 0.1 0 0.3-0.1 0.3h-0.6-0.6v-1.9c0-0.7-0.2-1.4-0.7-1.9-0.6-0.5-1.2-0.8-1.9-0.8h-1q0-6.1 2.7-7.6c-1.3 1.9-1.5 4.4-1.5 6.7 0.4 0 0.9-0.1 1.4 0 0.5 0.1 0.9 0.3 1.3 0.6 0.4 0.3 0.7 0.8 0.8 1.2 0.3 0.7 0.2 1.4 0.2 2z"/>
			<path id="&lt;Path&gt;" class="s3" d="m136.8 60.1v-1.9c0-0.7-0.2-1.4-0.7-1.9-0.6-0.5-1.2-0.8-1.9-0.8h-1q0-6.1 2.7-7.6c-1.3 1.9-1.5 4.4-1.5 6.7 0.4 0 0.9-0.1 1.4 0 0.5 0.1 0.9 0.3 1.3 0.6q0.6 0.5 0.8 1.2c0.3 0.7 0.2 1.4 0.2 2v1.1 0.3c0 0.1 0 0.3-0.1 0.3h-0.6-0.6z"/>
			<path id="&lt;Path&gt;" class="s3" d="m139.7 45.4q-0.1 0.1-0.2 0.1-0.1 0-0.2 0-0.2 0.1-0.4 0.1-0.7 0.3-1.3 0.6-0.3 0.2-0.6 0.4c-0.6 0-1.7-0.1-3.2 0.2-1.7 0.3-3 1.3-3.6 1.8 0.6-0.9 1.4-1.6 2.3-2.2 0.9-0.5 1.8-0.8 2.8-0.9 1.4-0.3 2.9-0.3 4.4-0.1 0 0 0 0 0 0z"/>
			<path id="&lt;Path&gt;" class="s3" d="m132.5 46.4c0.9-0.5 1.8-0.8 2.8-0.9q1-0.2 2.1-0.2 1.2 0 2.3 0.1c0 0 0 0 0 0q-0.1 0.1-0.2 0.1-0.1 0-0.2 0-0.2 0.1-0.5 0.1-0.6 0.3-1.2 0.6-0.3 0.2-0.6 0.4c-0.6 0-1.7-0.1-3.2 0.2-1.7 0.3-3 1.3-3.6 1.8 0.6-0.9 1.4-1.6 2.3-2.2z"/>
			<path id="&lt;Path&gt;" class="s3" d="m134.1 60.1c-0.1 0 0 0-0.1 0.1q0 0.1 0 0.2 0 0.2 0 0.4-0.1 0.8-0.3 1.6c-0.3 1.3-0.7 2.7-1.2 3.9-0.6 1.1-1.1 2.2-1.9 3.2q-1 1.3-2.3 2.4-1.5 1.3-3.3 2.1-2.2 1.1-4.6 1.8-1.7 0.4-3.4 0.7c7.3-1.6 10.9-3.9 13.3-7.7q2.6-4.1 2.7-8.7h1.2q0 0-0.1 0z"/>
			<path id="&lt;Path&gt;" class="s3" d="m134.1 60.1c-0.1 0 0 0-0.1 0.1q0 0.1 0 0.2 0 0.2 0 0.4-0.1 0.8-0.3 1.6c-0.3 1.3-0.7 2.7-1.2 3.9-0.6 1.1-1.1 2.2-1.9 3.2q-1 1.3-2.3 2.4-1.5 1.3-3.3 2.1-2.2 1.1-4.6 1.8-1.7 0.4-3.4 0.7c7.3-1.6 10.9-3.9 13.3-7.7q2.6-4.1 2.7-8.7h1.2q0 0-0.1 0z"/>
			<path id="&lt;Path&gt;" class="s3" d="m134.6 60.1q-0.1 0-0.2 0z"/>
			<path id="&lt;Path&gt;" class="s3" d="m134.6 60.1q0 0-0.2 0h0.2z"/>
			<path id="&lt;Path&gt;" class="s0" d="m30.8 199.6c0.8 0.4 1.8 0.8 2.9 0.8 1.5 0 2.6-0.8 2.6-2.2 0-1-0.6-1.7-1.8-2.5-1.6-1-2.7-2.1-2.7-3.7 0-2.8 2.3-4.5 5.2-4.5 1.4 0 2.4 0.3 2.9 0.6l-0.8 2c-0.5-0.2-1.3-0.6-2.3-0.5-1.5 0-2.4 0.9-2.4 1.9 0 1 0.7 1.6 2 2.5 1.5 0.9 2.5 2.1 2.5 3.8 0 2.9-2.2 4.7-5.4 4.7-1.6 0-2.9-0.5-3.4-0.9z"/>
			<path id="&lt;Compound Path&gt;" fill-rule="evenodd" class="s0" d="m48 201.7c-1 0.5-2.2 0.8-3.4 0.8-2.8 0-4.1-1.8-4.1-4.2 0-3.2 2.2-6.8 5.7-6.8 2 0 3.1 1.2 3.1 2.9 0 2.7-2.6 3.6-6.4 3.6 0 0.3 0 1.1 0.3 1.5 0.3 0.7 1 1.1 1.9 1.1 1.1 0 2-0.3 2.7-0.7zm-2.2-8.3c-1.3 0-2.3 1.3-2.7 2.7 2.3 0.1 3.9-0.4 3.9-1.7 0-0.6-0.4-1-1.2-1z"/>
			<path id="&lt;Compound Path&gt;" fill-rule="evenodd" class="s0" d="m57.7 201.7c-1 0.5-2.2 0.8-3.4 0.8-2.8 0-4.1-1.8-4.1-4.2 0-3.2 2.2-6.8 5.7-6.8 2 0 3.1 1.2 3.1 2.9 0 2.7-2.6 3.6-6.4 3.6 0 0.3 0 1.1 0.3 1.5 0.3 0.7 1 1.1 2 1.1 1 0 1.9-0.3 2.6-0.7zm-2.2-8.3c-1.3 0-2.3 1.3-2.7 2.7 2.3 0.1 3.9-0.4 3.9-1.7 0-0.6-0.4-1-1.2-1z"/>
			<path id="&lt;Compound Path&gt;" fill-rule="evenodd" class="s0" d="m70.8 187zm-2.2 11.6c-0.2 1.2-0.4 2.6-0.4 3.7h-2.2l0.2-1.8h-0.1c-0.8 1.3-2 2-3.3 2-1.7 0-2.9-1.5-2.9-3.7 0-3.7 2.5-7.3 6.2-7.3 0.5 0 1 0.1 1.4 0.3l0.9-4.8h2.4zm-1.4-4.8c-0.3-0.2-0.8-0.4-1.3-0.4-2 0-3.5 2.8-3.5 5 0 1.2 0.4 2.1 1.5 2.1 1 0 2.2-1.1 2.6-3.1z"/>
			<path id="&lt;Compound Path&gt;" class="s0" d="m70.6 202.3l2-10.6h2.4l-2 10.6zm2.4-13.4c0.1-0.8 0.7-1.5 1.5-1.5 0.8 0 1.3 0.6 1.3 1.3-0.1 0.9-0.7 1.5-1.5 1.5-0.8 0-1.3-0.5-1.3-1.3z"/>
			<path id="&lt;Path&gt;" class="s0" d="m75.7 202.3l1.3-7.2c0.3-1.3 0.4-2.5 0.6-3.4h2.1l-0.2 1.8h0.1c0.9-1.3 2.1-2 3.5-2 1.5 0 2.4 0.9 2.4 2.7 0 0.5 0 1.2-0.2 1.8l-1.1 6.3h-2.5l1.2-6.2q0.1-0.6 0.1-1.3c0-0.8-0.3-1.3-1.1-1.3-1.1 0-2.4 1.3-2.8 3.6l-1 5.2h-2.4z"/>
			<path id="&lt;Compound Path&gt;" fill-rule="evenodd" class="s0" d="m87.2 204.3c0.5 0.3 1.6 0.5 2.4 0.5 1.7 0 2.8-0.9 3.2-3.1l0.3-1.2c-0.9 1.2-1.9 1.8-3.1 1.8-1.9 0-2.9-1.6-3-3.6 0-3.4 2.4-7.2 6.6-7.2 1.2 0 2.5 0.3 3.3 0.7l-1.6 8.8c-0.4 2.1-1 3.6-2 4.6-1.1 0.9-2.4 1.2-3.8 1.2-1.1 0-2.3-0.3-2.9-0.7zm7.1-10.6c-0.3-0.1-0.7-0.2-1.2-0.2-2.1 0-3.5 2.6-3.5 4.8-0.1 1.1 0.3 2.1 1.4 2.1 1.2 0 2.3-1.5 2.6-3.2z"/>
			<path id="&lt;Compound Path&gt;" fill-rule="evenodd" class="s0" d="m101.8 204.3c0.6 0.3 1.6 0.5 2.5 0.5 1.6 0 2.7-0.9 3.2-3.1l0.2-1.2c-0.9 1.2-1.9 1.8-3.1 1.8-1.9 0-2.9-1.6-2.9-3.6-0.1-3.4 2.3-7.2 6.5-7.2 1.3 0 2.5 0.3 3.4 0.7l-1.7 8.8c-0.4 2.1-0.9 3.6-2 4.6-1 0.9-2.4 1.2-3.7 1.2-1.2 0-2.4-0.3-3-0.7zm7.1-10.6c-0.2-0.1-0.7-0.2-1.2-0.2-2.1 0-3.5 2.6-3.5 4.8 0 1.1 0.3 2.1 1.4 2.1 1.2 0 2.3-1.5 2.6-3.2z"/>
			<path id="&lt;Compound Path&gt;" fill-rule="evenodd" class="s0" d="m122.2 195.6c0 3.5-2.2 6.9-5.7 6.9-2.6 0-3.9-1.9-3.9-4.1 0-3.5 2.3-6.9 5.8-6.9 2.7 0 3.8 2.1 3.8 4.1zm-7.1 2.7c0 1.3 0.5 2.3 1.7 2.3 1.8 0 2.9-3 2.9-5 0-1.1-0.4-2.2-1.7-2.2-1.8 0-2.9 2.9-2.9 4.9z"/>
			<path id="&lt;Compound Path&gt;" fill-rule="evenodd" class="s0" d="m133.1 195.6c0 3.5-2.2 6.9-5.7 6.9-2.6 0-3.9-1.9-3.9-4.1 0-3.5 2.3-6.9 5.8-6.9 2.7 0 3.8 2.1 3.8 4.1zm-7.1 2.7c0 1.3 0.5 2.3 1.7 2.3 1.8 0 2.9-3 2.9-5 0-1.1-0.4-2.2-1.7-2.2-1.8 0-2.9 2.9-2.9 4.9z"/>
			<path id="&lt;Compound Path&gt;" fill-rule="evenodd" class="s0" d="m145.3 187zm-2.2 11.6c-0.3 1.2-0.4 2.6-0.5 3.7h-2.2l0.2-1.8c-0.9 1.3-2.1 2-3.3 2-1.8 0-3-1.5-3-3.7 0-3.7 2.5-7.3 6.2-7.3 0.5 0 1.1 0.1 1.4 0.3l1-4.8h2.4zm-1.5-4.8c-0.3-0.2-0.7-0.4-1.3-0.4-2 0-3.5 2.8-3.5 5 0 1.2 0.5 2.1 1.5 2.1 1 0 2.2-1.1 2.6-3.1z"/>
			<path id="&lt;Path&gt;" class="s0" d="m145 202.3l1.4-7.2c0.2-1.3 0.4-2.5 0.5-3.4h2.2l-0.2 1.8c0.9-1.3 2.2-2 3.5-2 1.5 0 2.5 0.9 2.5 2.7 0 0.5-0.1 1.2-0.2 1.8l-1.2 6.3h-2.4l1.1-6.2q0.2-0.6 0.2-1.3c0-0.8-0.3-1.3-1.2-1.3-1 0-2.4 1.3-2.8 3.6l-1 5.2h-2.4z"/>
			<path id="&lt;Compound Path&gt;" fill-rule="evenodd" class="s0" d="m163.9 201.7c-1 0.5-2.3 0.8-3.5 0.8-2.8 0-4-1.8-4-4.2 0-3.2 2.1-6.8 5.7-6.8 1.9 0 3.1 1.2 3.1 2.9 0 2.7-2.7 3.6-6.4 3.6 0 0.3 0 1.1 0.2 1.5 0.4 0.7 1.1 1.1 2 1.1 1.1 0 2-0.3 2.7-0.7zm-2.2-8.3c-1.4 0-2.3 1.3-2.7 2.7 2.3 0.1 3.9-0.4 3.9-1.7 0-0.6-0.5-1-1.2-1z"/>
			<path id="&lt;Path&gt;" class="s0" d="m166 200c0.5 0.3 1.4 0.7 2.3 0.7 1 0 1.6-0.6 1.6-1.4 0-0.7-0.4-1.1-1.3-1.7-1.1-0.6-1.9-1.5-1.9-2.7 0-1.9 1.7-3.4 4.1-3.4 1 0 1.9 0.2 2.3 0.5l-0.6 1.8c-0.4-0.2-1-0.5-1.7-0.5-1 0-1.6 0.6-1.6 1.3 0 0.6 0.4 1 1.2 1.5 1.1 0.7 2 1.6 2 2.8 0 2.3-1.9 3.6-4.3 3.6-1.1 0-2.2-0.4-2.7-0.7z"/>
			<path id="&lt;Path&gt;" class="s0" d="m174 200c0.5 0.3 1.4 0.7 2.3 0.7 1 0 1.6-0.6 1.6-1.4 0-0.7-0.4-1.1-1.3-1.7-1.1-0.6-1.9-1.5-1.9-2.7 0-1.9 1.7-3.4 4.1-3.4 1 0 1.9 0.2 2.3 0.5l-0.6 1.8c-0.4-0.2-1-0.5-1.8-0.5-0.9 0-1.5 0.6-1.5 1.3 0 0.6 0.4 1 1.2 1.5 1.1 0.7 2 1.6 2 2.8 0 2.3-1.9 3.6-4.3 3.6-1.1 0-2.2-0.4-2.7-0.7z"/>
		</g>
	</g>
</svg>